<svg width="15" height="16" viewBox="0 0 15 16" fill="none" xmlns="http://www.w3.org/2000/svg"><path d="M2.26 14.557a4.395 4.395 0 006.299 0L13.598 9.4a.436.436 0 00-.03-.644l-.673-.674a.46.46 0 00-.645 0l-5.04 5.156a2.495 2.495 0 01-3.603 0c-.996-1.025-.996-2.724.03-3.75L9.789 3.19a1.432 1.432 0 012.021 0 1.578 1.578 0 010 2.14l-5.36 5.478c-.118.117-.323.117-.47 0a.443.443 0 01.03-.557l4.219-4.277c.175-.205.175-.498-.03-.674l-.644-.645a.469.469 0 00-.674 0L4.662 8.961a2.246 2.246 0 00-.03 3.135c.85.908 2.286.908 3.165.029l5.361-5.479c1.29-1.318 1.26-3.457 0-4.775C11.84.553 9.73.553 8.441 1.871L2.29 8.17a4.581 4.581 0 00-.03 6.387z" fill="currentColor"/></svg>