<svg width="565" height="427" viewBox="0 0 565 427" fill="none" xmlns="http://www.w3.org/2000/svg"><path d="M252.595 102.427c-.386-.89.594-1.753 1.428-1.257l91.327 54.314a1 1 0 001.172-.109l79.351-69.85c.726-.639 1.846.023 1.637.967l-22.904 103.434c-.093.421.094.855.465 1.076l91.341 54.323c.834.495.545 1.767-.42 1.855l-105.476 9.596a1 1 0 00-.886.78l-22.898 103.407c-.21.946-1.508 1.071-1.894.181l-42.297-97.494a1.001 1.001 0 00-1.008-.598l-105.504 9.599c-.963.087-1.477-1.108-.751-1.747l79.351-69.849c.326-.287.429-.751.257-1.149l-42.291-97.479z" fill="#D3230F"/><path d="M46.051 134.33a.5.5 0 01.506-.806l54.471 13.792a1.498 1.498 0 001.638-.657l29.72-47.355a.5.5 0 01.922.23l3.954 55.894a1.5 1.5 0 001.128 1.348l54.487 13.796a.5.5 0 01.063.949l-52.026 20.736a1.501 1.501 0 00-.941 1.499l3.952 55.866a.5.5 0 01-.882.357l-36.118-43.066a1.5 1.5 0 00-1.705-.429L53.17 227.23a.5.5 0 01-.61-.731l29.72-47.355a1.5 1.5 0 00-.121-1.761L46.05 134.33z" stroke="#FB876E"/></svg>