<svg width="565" height="427" viewBox="0 0 565 427" fill="none" xmlns="http://www.w3.org/2000/svg"><path d="M252.595 102.427c-.386-.89.594-1.753 1.428-1.257l91.327 54.314a1 1 0 001.172-.109l79.351-69.85c.726-.639 1.846.023 1.637.967l-22.904 103.434c-.093.421.094.855.465 1.076l91.341 54.323c.834.495.545 1.767-.42 1.855l-105.476 9.596a1 1 0 00-.886.78l-22.898 103.407c-.21.946-1.508 1.071-1.894.181l-42.297-97.494a1.001 1.001 0 00-1.008-.598l-105.504 9.599c-.963.087-1.477-1.108-.751-1.747l79.351-69.849c.326-.287.429-.751.257-1.149l-42.291-97.479z" fill="#D3230F"/><path d="M340.307 225.124l3.635-5.747-3.676-2.325 1.738-2.747 3.676 2.326 2.379-3.761-3.676-2.325 2.032-3.212 3.676 2.326 9.303-14.704 7.944 5.026c3.69 2.334 5.95 4.809 6.78 7.425.858 2.634.387 5.373-1.413 8.218-1.818 2.873-4.215 4.512-7.192 4.916-2.96.376-6.327-.63-10.102-3.018l-3.549-2.246-2.379 3.761 6.972 4.411-1.738 2.746-6.972-4.411-3.636 5.747-3.802-2.406zm16.587-11.161c2.563 1.622 4.816 2.456 6.759 2.502 1.972.064 3.652-1.003 5.042-3.2 1.212-1.916 1.521-3.713.926-5.391-.595-1.678-2.146-3.31-4.653-4.896l-3.803-2.406-7.271 11.493 3 1.898z" fill="#E4CEA1"/><path d="M107.803 184.428l1.356-3.848-2.461-.867.648-1.839 2.461.867.888-2.518-2.462-.867.758-2.151 2.462.868 3.471-9.846 5.319 1.874c2.471.871 4.124 2.016 4.96 3.435.855 1.425.947 3.09.275 4.995-.678 1.924-1.861 3.204-3.548 3.839-1.68.617-3.784.479-6.312-.412l-2.376-.837-.888 2.518 4.668 1.645-.648 1.84-4.668-1.646-1.357 3.848-2.546-.898zm8.205-8.75c1.717.605 3.146.791 4.289.558 1.161-.227 2.001-1.076 2.52-2.547.452-1.283.392-2.375-.181-3.277-.573-.902-1.699-1.648-3.377-2.24l-2.547-.898-2.713 7.696 2.009.708z" fill="#FB876E"/><path d="M46.051 134.33a.5.5 0 01.506-.806l54.471 13.792a1.498 1.498 0 001.638-.657l29.72-47.355a.5.5 0 01.922.23l3.954 55.894a1.5 1.5 0 001.128 1.348l54.487 13.796a.5.5 0 01.063.949l-52.026 20.736a1.501 1.501 0 00-.941 1.499l3.952 55.866a.5.5 0 01-.882.357l-36.118-43.066a1.5 1.5 0 00-1.705-.429L53.17 227.23a.5.5 0 01-.61-.731l29.72-47.355a1.5 1.5 0 00-.121-1.761L46.05 134.33z" stroke="#FB876E"/></svg>