<svg width="270" height="257" viewBox="0 0 270 257" fill="none" xmlns="http://www.w3.org/2000/svg"><path d="M133.098 1.854c.599-1.843 3.205-1.843 3.804 0l30.428 93.648a2 2 0 001.902 1.382h98.467c1.937 0 2.743 2.479 1.175 3.618l-79.661 57.877a2 2 0 00-.726 2.236l30.428 93.647c.598 1.843-1.511 3.375-3.078 2.236l-79.661-57.877a2.002 2.002 0 00-2.352 0l-79.66 57.877c-1.568 1.139-3.677-.393-3.078-2.236l30.427-93.647a2 2 0 00-.726-2.236L1.126 100.502c-1.568-1.14-.762-3.618 1.175-3.618h98.467a2 2 0 001.902-1.382l30.428-93.648z" fill="#E93622"/></svg>