<svg width="124" height="118" viewBox="0 0 124 118" fill="none" xmlns="http://www.w3.org/2000/svg"><path d="M61.049 2.163c.3-.921 1.603-.921 1.902 0l13.14 40.442a3 3 0 002.854 2.073h42.523c.968 0 1.371 1.24.587 1.809L87.653 71.48a3 3 0 00-1.09 3.354l13.141 40.442c.299.921-.755 1.688-1.539 1.118L63.763 91.401a3 3 0 00-3.526 0l-34.402 24.994c-.784.57-1.838-.197-1.539-1.118l13.14-40.442a3 3 0 00-1.09-3.354L1.945 46.487c-.784-.57-.381-1.81.587-1.81h42.523a3 3 0 002.854-2.072l13.14-40.442z" stroke="#E4CEA1" stroke-width="2"/></svg>