<svg width="20" height="14" viewBox="0 0 20 14" fill="none" xmlns="http://www.w3.org/2000/svg"><path d="M19.167 0H.833C.347 0 0 .352 0 .844v12.312c0 .492.347.844.833.844h18.334c.486 0 .833-.352.833-.844V.844C20 .352 19.653 0 19.167 0zm-6.111 7.598c1.527 1.055 5.555 4.221 5.555 4.221.139.14.139.422.07.563-.07.14-.348.281-.487.14 0 0-4.236-3.095-5.902-4.22-.07-.07-.14 0-.14 0l-1.805 1.477a.527.527 0 01-.347.14.527.527 0 01-.347-.14L7.847 8.302s-.07-.07-.139 0c-1.597 1.125-5.833 4.291-5.833 4.291-.139.14-.486 0-.556-.14-.069-.141-.069-.423.07-.564 0 0 4.028-3.095 5.555-4.15.07-.07 0-.141 0-.141L1.25 2.322c-.208-.211-.278-.493-.139-.704a.381.381 0 01.347-.211c.14 0 .209 0 .348.07L9.86 8.583c.07.07.139.07.208.07.07 0 .14 0 .209-.07l7.986-7.106c.07-.07.139-.07.278-.07s.277.07.347.211c.139.211.07.493-.139.704l-5.694 5.206c0-.07-.07 0 0 .07z" fill="#E4CEA1"/></svg>