<svg width="22" height="22" viewBox="0 0 22 22" fill="none" xmlns="http://www.w3.org/2000/svg"><path d="M21.992 17.37c.041.37-.082.656-.327.943l-3.107 3.073c-.122.163-.326.286-.53.41-.246.122-.45.163-.655.204h-.409c-.286 0-.776-.041-1.43-.164-.655-.082-1.472-.369-2.412-.737-.94-.41-2.044-.983-3.23-1.803-1.185-.82-2.493-1.884-3.883-3.277-1.104-1.066-2.003-2.09-2.698-3.073-.695-.983-1.308-1.884-1.717-2.704-.45-.82-.776-1.598-.98-2.253-.205-.697-.369-1.27-.45-1.762C0 5.777 0 5.407 0 5.121c0-.287.04-.45.04-.45.042-.205.083-.451.205-.656.123-.246.246-.41.409-.533L3.761.37C3.965.123 4.21 0 4.456 0a.82.82 0 01.531.164c.164.123.286.246.409.45l2.493 4.712c.123.246.164.532.123.82a1.64 1.64 0 01-.409.737L6.46 8.03c-.041.04-.041.082-.082.164-.04.082-.04.123-.04.164.08.327.203.696.408 1.106.204.368.49.82.858 1.352.368.532.94 1.147 1.635 1.843.695.697 1.309 1.27 1.88 1.68.532.41.982.696 1.35.86.368.205.654.287.858.328l.286.041c.041 0 .082 0 .164-.041s.122-.041.163-.082l1.308-1.352c.287-.246.614-.369.982-.369.245 0 .49.041.613.123h.04l4.497 2.663c.368.328.531.574.613.86z" fill="#E4CEA1"/></svg>