<svg fill="none" xmlns="http://www.w3.org/2000/svg"><defs><path id="left" d="M1.498 56.559a2 2 0 000 2.882l58.115 55.922c1.27 1.223 3.387.322 3.387-1.441V2.078c0-1.763-2.116-2.664-3.387-1.44L1.498 56.557z"/><path id="right" d="M61.502 56.559a2 2 0 010 2.882L3.387 115.363c-1.27 1.223-3.387.322-3.387-1.441V2.078C0 .315 2.116-.586 3.387.638l58.115 55.92z"/><path id="left-s" d="M.32 26.279a2 2 0 01.013-1.553l9.83-22.82C11.023-.088 14 .527 14 2.699V49.39c0 2.19-3.015 2.787-3.85.762L.32 26.279z"/><path id="right-s" d="M13.68 25.221a2 2 0 01-.013 1.553l-9.83 22.82C2.977 51.588 0 50.973 0 48.801V2.11C0-.08 3.015-.677 3.85 1.348l9.83 23.873z"/><clipPath id="bg"><use href="#left"/><rect x="62" width="100%" height="116" style="width:calc(100% - 123px)"/><use href="#right" x="100%" transform="translate(-63)"/></clipPath><clipPath id="bg-s"><use href="#left-s"/><rect x="62" width="100%" height="116" style="width:calc(100% - 123px)"/><use href="#right-s" x="100%" transform="translate(-63)"/></clipPath></defs><rect width="100%" height="100%" fill="#E93622" clip-path="url(#bg)"/></svg>