<?xml version="1.0" encoding="utf-8"?><svg viewBox="0 0 18 18" fill="none" xmlns="http://www.w3.org/2000/svg" width="18" height="18"><path d="M13.699 3.456a4.252 4.252 0 00-6.007 0L3.104 8.04a.158.158 0 00-.045.113c0 .042.015.082.045.112l.649.649a.158.158 0 00.223 0l4.588-4.585a2.996 2.996 0 012.132-.882c.805 0 1.563.313 2.13.882.57.57.883 1.328.883 2.13 0 .806-.313 1.562-.882 2.131L8.15 13.264l-.758.758a1.817 1.817 0 01-3.099-1.283c0-.485.188-.94.531-1.283l4.64-4.638a.62.62 0 01.437-.18h.002a.613.613 0 01.434 1.053l-3.792 3.787a.158.158 0 00-.046.113c0 .042.016.083.046.112l.649.65a.158.158 0 00.223 0l3.79-3.79c.35-.35.541-.815.541-1.309s-.193-.96-.541-1.307a1.855 1.855 0 00-2.62 0l-.45.451-4.186 4.186a3.027 3.027 0 00-.893 2.157 3.045 3.045 0 003.05 3.045c.78 0 1.56-.298 2.154-.892L13.7 9.462A4.226 4.226 0 0014.94 6.46 4.212 4.212 0 0013.7 3.456z" fill="currentColor"/></svg>