<?xml version="1.0" encoding="utf-8"?><svg fill="none" xmlns="http://www.w3.org/2000/svg" class="logo-gp" viewBox="0 0 35.12 24" width="35.12" height="24"><path d="M16.235 21.032c-.909.984-2.026 1.727-3.353 2.23-1.315.492-2.759.738-4.331.738-2.685 0-4.77-.829-6.257-2.487C.807 19.845.043 17.423 0 14.246v-4.203c0-3.22.7-5.695 2.102-7.428C3.513.872 5.567 0 8.262 0c2.535 0 4.444.626 5.727 1.877 1.294 1.251 2.043 3.214 2.246 5.888h-4.588c-.128-1.487-.438-2.498-.93-3.032-.492-.546-1.262-.819-2.31-.819-1.273 0-2.198.466-2.776 1.396-.578.93-.877 2.412-.898 4.444v4.235c0 2.129.315 3.68.946 4.653.642.962 1.69 1.444 3.145 1.444.93 0 1.684-.188 2.262-.562l.417-.289v-4.283H8.198V11.39h8.037v9.642zM24.289 15.465v8.214h-4.717V.321h7.957c2.31 0 4.15.716 5.52 2.15 1.379 1.433 2.069 3.294 2.069 5.582 0 2.29-.68 4.097-2.038 5.423-1.358 1.326-3.24 1.99-5.647 1.99H24.29zm0-3.93h3.24c.899 0 1.594-.294 2.086-.883.492-.588.738-1.443.738-2.566 0-1.166-.251-2.091-.754-2.776-.503-.695-1.177-1.048-2.021-1.059h-3.29v7.284z"/></svg>