<?xml version="1.0" encoding="utf-8"?><svg fill="none" xmlns="http://www.w3.org/2000/svg" class="logo-card" viewBox="0 0 116.36 42.31" width="116.36" height="42.31"><path fill-rule="evenodd" clip-rule="evenodd" d="M21.797 0C10.113 0 .641 9.472.641 21.156s9.472 21.156 21.156 21.156h74.047c11.684 0 21.156-9.472 21.156-21.156S107.528 0 95.844 0H21.797zm-7.556 25.69a4.533 4.533 0 004.534-4.534c0-1.62-1.302-3.022-2.51-4.324-1.047-1.128-2.024-2.18-2.024-3.232-3.777 3.023-4.533 5.052-4.533 7.556a4.533 4.533 0 004.534 4.534z" fill="#fff"/><path d="M44.267 24.898c-.117 2.663-.866 4.68-2.246 6.049-1.38 1.369-3.326 2.053-5.84 2.053-2.64 0-4.668-.866-6.08-2.599-1.4-1.743-2.101-4.224-2.101-7.444v-3.93c0-3.209.727-5.68 2.182-7.412C31.636 9.872 33.658 9 36.246 9c2.545 0 4.476.711 5.791 2.134 1.327 1.422 2.08 3.465 2.263 6.128h-4.733c-.043-1.647-.3-2.78-.77-3.401-.46-.631-1.31-.947-2.551-.947-1.262 0-2.155.444-2.68 1.332-.523.877-.801 2.326-.833 4.348v4.411c0 2.321.256 3.915.77 4.781.524.866 1.417 1.3 2.679 1.3 1.24 0 2.096-.3 2.567-.899.47-.61.738-1.706.802-3.289h4.716zM58.32 27.898h-6.432l-1.252 4.781h-4.989l7.3-23.358h4.315l7.348 23.358h-5.038l-1.251-4.78zm-5.406-3.93h4.364l-2.182-8.326-2.182 8.326zM73.882 24.144H71.54v8.535h-4.717V9.321h7.525c2.363 0 4.187.615 5.47 1.845 1.294 1.219 1.941 2.957 1.941 5.214 0 3.101-1.128 5.272-3.385 6.513l4.091 9.562v.224h-5.07l-3.513-8.535zm-2.342-3.93h2.68c.94 0 1.646-.31 2.117-.93.47-.632.706-1.471.706-2.52 0-2.341-.915-3.513-2.744-3.513H71.54v6.963zM85 32.68V9.32h6.177c2.727 0 4.898.867 6.513 2.6 1.626 1.732 2.454 4.107 2.486 7.123v3.786c0 3.07-.812 5.481-2.438 7.235-1.615 1.744-3.845 2.615-6.69 2.615H85zm4.717-19.429v15.514h1.411c1.573 0 2.68-.412 3.321-1.236.642-.834.979-2.267 1.01-4.3v-4.058c0-2.182-.304-3.7-.914-4.556-.61-.866-1.647-1.32-3.112-1.364h-1.716z" fill="currentColor"/></svg>