<?xml version="1.0" encoding="utf-8"?><svg width="15" height="14" fill="none" xmlns="http://www.w3.org/2000/svg" viewBox="0 0 15 14"><path d="M14.063 8.488c0 .205-.088.381-.206.498a.686.686 0 01-.498.205H9.316v4.043c0 .206-.087.381-.205.498a.686.686 0 01-.498.206H6.387c-.205 0-.381-.06-.498-.206-.147-.117-.205-.292-.205-.498V9.191H1.64c-.205 0-.381-.058-.498-.205-.147-.117-.206-.293-.206-.498V6.262c0-.176.06-.352.206-.498a.707.707 0 01.498-.205h4.043V1.516c0-.176.058-.352.205-.498a.707.707 0 01.498-.206h2.226c.176 0 .352.088.498.206.118.146.205.322.205.498v4.043h4.043c.176 0 .352.087.498.205.118.146.206.322.206.498v2.226z" fill="currentColor"/></svg>