<svg width="103" height="128" viewBox="0 0 103 128" fill="none" xmlns="http://www.w3.org/2000/svg"><path d="M3.468 126.676c-1.554 0-2.813-1.277-2.813-2.851V58.39c0-1.575 1.26-2.852 2.813-2.852 1.553 0 2.812 1.277 2.812 2.852v65.435c0 1.575-1.26 2.851-2.812 2.851z" fill="#7F8C8D"/><path d="M102.273.06L80.197 29.188l22.076 29.126H.818V.061h101.455z" fill="#E93622"/><path d="M29.527 90.739c.3-.922 1.603-.922 1.902 0l3.91 12.045a1 1 0 00.951.692h12.654c.969 0 1.372 1.239.588 1.808l-10.239 7.448a.999.999 0 00-.363 1.117l3.91 12.049c.3.921-.755 1.687-1.539 1.117l-10.235-7.444a1 1 0 00-1.176 0l-10.235 7.444c-.784.57-1.838-.196-1.54-1.117l3.911-12.049a1 1 0 00-.363-1.117l-10.24-7.448c-.782-.569-.38-1.808.59-1.808h12.653a1 1 0 00.951-.692l3.91-12.045z" fill="#E4CEA1"/></svg>