<?xml version="1.0" encoding="utf-8"?><svg xmlns="http://www.w3.org/2000/svg" xmlns:xlink="http://www.w3.org/1999/xlink"><symbol viewBox="0 0 12 8" id="angle" xmlns="http://www.w3.org/2000/svg"><path fill-rule="evenodd" clip-rule="evenodd" d="M10.6 7.4L12 6 6 0 0 6l1.4 1.4L6 2.8l4.6 4.6z" fill="currentColor"/></symbol><symbol fill="none" viewBox="0 0 56.5 7.44" id="arrow" xmlns="http://www.w3.org/2000/svg"><path d="M56.354 4.354a.5.5 0 000-.708L53.172.464a.5.5 0 10-.707.708L55.293 4l-2.828 2.828a.5.5 0 10.707.708l3.182-3.182zM0 4.5h56v-1H0v1z" fill="currentColor"/></symbol><symbol fill="none" viewBox="0 0 15 34" id="arrow2" xmlns="http://www.w3.org/2000/svg"><path d="M6.793 33.707a1 1 0 001.414 0l6.364-6.364a1 1 0 00-1.414-1.414L7.5 31.586l-5.657-5.657A1 1 0 00.43 27.343l6.364 6.364zM6.5 0v33h2V0h-2z" fill="currentColor"/></symbol><symbol fill="none" viewBox="0 0 18.02 13.43" id="check" xmlns="http://www.w3.org/2000/svg"><path d="M6.117 13.684c.14.21.352.28.633.28.246 0 .457-.07.633-.28l10.37-10.336A.872.872 0 0018 2.715a1.01 1.01 0 00-.246-.633l-1.3-1.266a.88.88 0 00-.634-.28.88.88 0 00-.633.28L6.75 9.254 2.812 5.316c-.21-.175-.421-.28-.667-.28a.75.75 0 00-.598.28l-1.3 1.266A.847.847 0 000 7.215c0 .281.07.492.246.633l5.871 5.836z" fill="currentColor"/></symbol><symbol viewBox="0 0 18 18" fill="none" id="clip" xmlns="http://www.w3.org/2000/svg"><path d="M13.699 3.456a4.252 4.252 0 00-6.007 0L3.104 8.04a.158.158 0 00-.045.113c0 .042.015.082.045.112l.649.649a.158.158 0 00.223 0l4.588-4.585a2.996 2.996 0 012.132-.882c.805 0 1.563.313 2.13.882.57.57.883 1.328.883 2.13 0 .806-.313 1.562-.882 2.131L8.15 13.264l-.758.758a1.817 1.817 0 01-3.099-1.283c0-.485.188-.94.531-1.283l4.64-4.638a.62.62 0 01.437-.18h.002a.613.613 0 01.434 1.053l-3.792 3.787a.158.158 0 00-.046.113c0 .042.016.083.046.112l.649.65a.158.158 0 00.223 0l3.79-3.79c.35-.35.541-.815.541-1.309s-.193-.96-.541-1.307a1.855 1.855 0 00-2.62 0l-.45.451-4.186 4.186a3.027 3.027 0 00-.893 2.157 3.045 3.045 0 003.05 3.045c.78 0 1.56-.298 2.154-.892L13.7 9.462A4.226 4.226 0 0014.94 6.46 4.212 4.212 0 0013.7 3.456z" fill="currentColor"/></symbol><symbol fill="none" class="logo-card" viewBox="0 0 116.36 42.31" id="logo-card" xmlns="http://www.w3.org/2000/svg"><path fill-rule="evenodd" clip-rule="evenodd" d="M21.797 0C10.113 0 .641 9.472.641 21.156s9.472 21.156 21.156 21.156h74.047c11.684 0 21.156-9.472 21.156-21.156S107.528 0 95.844 0H21.797zm-7.556 25.69a4.533 4.533 0 004.534-4.534c0-1.62-1.302-3.022-2.51-4.324-1.047-1.128-2.024-2.18-2.024-3.232-3.777 3.023-4.533 5.052-4.533 7.556a4.533 4.533 0 004.534 4.534z" fill="#fff"/><path d="M44.267 24.898c-.117 2.663-.866 4.68-2.246 6.049-1.38 1.369-3.326 2.053-5.84 2.053-2.64 0-4.668-.866-6.08-2.599-1.4-1.743-2.101-4.224-2.101-7.444v-3.93c0-3.209.727-5.68 2.182-7.412C31.636 9.872 33.658 9 36.246 9c2.545 0 4.476.711 5.791 2.134 1.327 1.422 2.08 3.465 2.263 6.128h-4.733c-.043-1.647-.3-2.78-.77-3.401-.46-.631-1.31-.947-2.551-.947-1.262 0-2.155.444-2.68 1.332-.523.877-.801 2.326-.833 4.348v4.411c0 2.321.256 3.915.77 4.781.524.866 1.417 1.3 2.679 1.3 1.24 0 2.096-.3 2.567-.899.47-.61.738-1.706.802-3.289h4.716zM58.32 27.898h-6.432l-1.252 4.781h-4.989l7.3-23.358h4.315l7.348 23.358h-5.038l-1.251-4.78zm-5.406-3.93h4.364l-2.182-8.326-2.182 8.326zM73.882 24.144H71.54v8.535h-4.717V9.321h7.525c2.363 0 4.187.615 5.47 1.845 1.294 1.219 1.941 2.957 1.941 5.214 0 3.101-1.128 5.272-3.385 6.513l4.091 9.562v.224h-5.07l-3.513-8.535zm-2.342-3.93h2.68c.94 0 1.646-.31 2.117-.93.47-.632.706-1.471.706-2.52 0-2.341-.915-3.513-2.744-3.513H71.54v6.963zM85 32.68V9.32h6.177c2.727 0 4.898.867 6.513 2.6 1.626 1.732 2.454 4.107 2.486 7.123v3.786c0 3.07-.812 5.481-2.438 7.235-1.615 1.744-3.845 2.615-6.69 2.615H85zm4.717-19.429v15.514h1.411c1.573 0 2.68-.412 3.321-1.236.642-.834.979-2.267 1.01-4.3v-4.058c0-2.182-.304-3.7-.914-4.556-.61-.866-1.647-1.32-3.112-1.364h-1.716z" fill="currentColor"/></symbol><symbol fill="none" class="logo-gp" viewBox="0 0 35.12 24" id="logo-gp" xmlns="http://www.w3.org/2000/svg"><path d="M16.235 21.032c-.909.984-2.026 1.727-3.353 2.23-1.315.492-2.759.738-4.331.738-2.685 0-4.77-.829-6.257-2.487C.807 19.845.043 17.423 0 14.246v-4.203c0-3.22.7-5.695 2.102-7.428C3.513.872 5.567 0 8.262 0c2.535 0 4.444.626 5.727 1.877 1.294 1.251 2.043 3.214 2.246 5.888h-4.588c-.128-1.487-.438-2.498-.93-3.032-.492-.546-1.262-.819-2.31-.819-1.273 0-2.198.466-2.776 1.396-.578.93-.877 2.412-.898 4.444v4.235c0 2.129.315 3.68.946 4.653.642.962 1.69 1.444 3.145 1.444.93 0 1.684-.188 2.262-.562l.417-.289v-4.283H8.198V11.39h8.037v9.642zM24.289 15.465v8.214h-4.717V.321h7.957c2.31 0 4.15.716 5.52 2.15 1.379 1.433 2.069 3.294 2.069 5.582 0 2.29-.68 4.097-2.038 5.423-1.358 1.326-3.24 1.99-5.647 1.99H24.29zm0-3.93h3.24c.899 0 1.594-.294 2.086-.883.492-.588.738-1.443.738-2.566 0-1.166-.251-2.091-.754-2.776-.503-.695-1.177-1.048-2.021-1.059h-3.29v7.284z"/></symbol><symbol fill="none" viewBox="0 0 15 5" id="minus" xmlns="http://www.w3.org/2000/svg"><path d="M13.36 4.191H1.64c-.204 0-.38-.058-.497-.205-.147-.117-.206-.293-.206-.498V1.262c0-.176.06-.352.206-.498A.707.707 0 011.64.559h11.718c.176 0 .352.087.498.205.118.146.206.322.206.498v2.226c0 .205-.088.381-.206.498a.686.686 0 01-.498.205z" fill="currentColor"/></symbol><symbol fill="none" viewBox="0 0 15 14" id="plus" xmlns="http://www.w3.org/2000/svg"><path d="M14.063 8.488c0 .205-.088.381-.206.498a.686.686 0 01-.498.205H9.316v4.043c0 .206-.087.381-.205.498a.686.686 0 01-.498.206H6.387c-.205 0-.381-.06-.498-.206-.147-.117-.205-.292-.205-.498V9.191H1.64c-.205 0-.381-.058-.498-.205-.147-.117-.206-.293-.206-.498V6.262c0-.176.06-.352.206-.498a.707.707 0 01.498-.205h4.043V1.516c0-.176.058-.352.205-.498a.707.707 0 01.498-.206h2.226c.176 0 .352.088.498.206.118.146.205.322.205.498v4.043h4.043c.176 0 .352.087.498.205.118.146.206.322.206.498v2.226z" fill="currentColor"/></symbol><symbol viewBox="0 0 28.7 27.9" id="web2ru" xmlns="http://www.w3.org/2000/svg"><path fill="currentColor" d="M5.5 25.1c1.5 0 2.6-1.2 2.6-2.6 0-.7-.2-1.3-.7-1.8l2.1-4c.2.1.5.1.7.1.6 0 1.2-.2 1.7-.6l2.9 2.4c-.1.3-.2.7-.2 1 0 1.5 1.2 2.6 2.6 2.6 1.5 0 2.6-1.2 2.6-2.6 0-.7-.3-1.4-.9-2l3.3-11.4c1.5 0 2.6-1.2 2.6-2.6 0-1.5-1.2-2.6-2.6-2.6-1.4 0-2.6 1-2.6 2.5 0 .9.5 1.7 1.2 2.2l-3.2 11.2h-.4c-.5 0-1 .2-1.5.5l-3-2.5c.1-.3.1-.5.1-.8 0-1.5-1.2-2.6-2.6-2.6-1.4 0-2.6 1.1-2.6 2.5 0 .6.2 1.3.7 1.7l-2.1 4.1c-.2-.1-.4-.1-.7-.1-1.5 0-2.6 1.2-2.6 2.6 0 1.4 1.1 2.8 2.6 2.8zm-1.2-2.7c0-.6.5-1.1 1.1-1.1.6 0 1.1.5 1.1 1.1 0 .6-.5 1.1-1.1 1.1-.6.1-1.1-.5-1.1-1.1zM9.1 14c0-.6.5-1.1 1.1-1.1.6 0 1.1.5 1.1 1.1 0 .6-.5 1.1-1.1 1.1-.6 0-1.1-.4-1.1-1.1zm7 5.5c0-.6.5-1.1 1.1-1.1.6 0 1.1.5 1.1 1.1 0 .6-.5 1.1-1.1 1.1-.6.1-1.1-.4-1.1-1.1zm5-16c0-.6.5-1.1 1.1-1.1.6 0 1.1.5 1.1 1.1 0 .6-.5 1.1-1.1 1.1-.6 0-1.1-.5-1.1-1.1zm7.4 22.9h-.2l-4.5-1.8-.4-.2v2H1.5V5.3h2.1l-.2-.4L1.5.2V0H0v27.9h28.7v-1.5h-.2z"/></symbol></svg>